<svg x="0" y="0" width="2160" height="1080" viewBox="0 0 2160 1080" xmlns="http://www.w3.org/2000/svg" xmlns:xlink="http://www.w3.org/1999/xlink" xmlns:fi="http://pattern.flaticon.com/"><rect x="0px" y="0px" width="100%" height="100%" opacity="1" fill="#ffffff"/><defs><g transform="matrix(0.05934607982635498 0.01806185021996498 -0.01806185021996498 0.05934607982635498 276.7730407714844 252.07574462890625)" id="L1_1"><path d="m493.304688.5h-474.609376c-10.308593 0-18.695312 8.386719-18.695312 18.695312v401.726563c0 10.308594 8.386719 18.695313 18.695312 18.695313h474.609376c10.308593 0 18.695312-8.386719 18.695312-18.695313v-401.726563c0-10.308593-8.386719-18.695312-18.695312-18.695312zm-11.304688 30v22.402344l-175.375.425781c-4.683594.011719-9.152344 1.777344-12.585938 4.976563l-24.671874 23.027343h-239.367188v-50.832031zm-452 379.117188v-298.289063h243.902344c4.703125 0 9.1875-1.765625 12.625-4.976563l24.683594-23.035156 170.792968-.417968v326.71875zm0 0" fill="#225378"/><path d="m97.1875 59.207031c.089844.476563.210938.957031.359375 1.429688.140625.457031.3125.929687.492187 1.378906.1875.449219.398438.898437.628907 1.328125s.480469.851562.75 1.261719c.269531.410156.570312.808593.878906 1.179687.3125.378906.640625.75.992187 1.101563.339844.347656.707032.679687 1.089844.988281.378906.308594.777344.601562 1.1875.871094.402344.269531.832032.527344 1.261719.757812.429687.230469.878906.441406 1.328125.621094.449219.191406.910156.359375 1.382812.5.46875.140625.949219.261719 1.417969.359375.480469.101563.972657.171875 1.460938.21875.488281.050781.988281.070313 1.46875.070313.488281 0 .988281-.019532 1.480469-.070313.480468-.046875.96875-.117187 1.449218-.21875.480469-.097656.960938-.21875 1.429688-.359375.460937-.140625.933594-.308594 1.378906-.5.453125-.179688.902344-.390625 1.332031-.621094.429688-.230468.851563-.488281 1.261719-.757812.40625-.269532.808594-.5625 1.179688-.871094.390624-.308594.75-.640625 1.097656-.988281.351562-.351563.683594-.722657.992187-1.101563.308594-.371094.597657-.769531.878907-1.179687.261718-.410157.519531-.832031.75-1.261719.230468-.429688.441406-.878906.621093-1.328125.1875-.449219.359375-.921875.5-1.378906.140625-.472657.257813-.953125.359375-1.429688.101563-.480469.167969-.972656.21875-1.453125.050782-.488281.070313-.988281.070313-1.476562 0-.492188-.019531-.980469-.070313-1.472656-.050781-.488282-.117187-.980469-.21875-1.460938-.101562-.476562-.222656-.957031-.359375-1.417969-.140625-.46875-.3125-.929687-.5-1.378906-.179687-.460937-.390625-.902344-.621093-1.332031-.230469-.429688-.488282-.859375-.75-1.257813-.28125-.410156-.570313-.8125-.878907-1.191406-.3125-.378906-.640625-.75-.992187-1.089844-.347656-.351562-.707032-.679687-1.097656-.988281-.371094-.3125-.773438-.613281-1.179688-.882812-.410156-.269532-.832031-.519532-1.261719-.75-.429687-.230469-.878906-.4375-1.332031-.628907-.445312-.179687-.917969-.351562-1.378906-.488281-.46875-.152344-.949219-.269531-1.429688-.363281-.480468-.097657-.96875-.167969-1.449218-.21875-.980469-.097657-1.96875-.097657-2.949219 0-.488281.050781-.980469.121093-1.460938.21875-.46875.09375-.949219.210937-1.417969.363281-.472656.136719-.933593.308594-1.382812.488281-.449219.191407-.898438.398438-1.328125.628907-.429687.230468-.859375.480468-1.261719.75-.410156.269531-.808594.570312-1.1875.882812-.382812.308594-.75.636719-1.089844.988281-.351562.339844-.679687.710938-.992187 1.089844-.308594.378906-.609375.78125-.878906 1.191406-.269531.398438-.519531.828125-.75 1.257813-.230469.429687-.4375.871094-.628907 1.332031-.179687.449219-.351562.910156-.492187 1.378906-.148437.460938-.269531.941407-.359375 1.417969-.101562.480469-.167969.972656-.21875 1.460938-.050781.492187-.082031.980468-.082031 1.472656 0 .488281.03125.988281.082031 1.476562.050781.484375.121094.972656.21875 1.453125zm0 0" fill="#225378"/><path d="m54.378906 67.875c.382813.3125.78125.601562 1.191406.871094.398438.269531.832032.53125 1.261719.761718.429688.226563.878907.4375 1.328125.617188.449219.191406.910156.359375 1.378906.5.472657.140625.941407.261719 1.421876.359375.480468.101563.96875.171875 1.460937.222656.488281.046875.976563.070313 1.46875.070313.488281 0 .988281-.023438 1.480469-.070313.480468-.050781.96875-.121093 1.449218-.222656.480469-.097656.960938-.21875 1.429688-.359375.460938-.140625.929688-.308594 1.378906-.5.449219-.179688.902344-.390625 1.332032-.617188.429687-.230468.851562-.492187 1.261718-.761718.40625-.269532.808594-.558594 1.179688-.871094.378906-.308594.75-.640625 1.097656-.988281.351562-.351563.679688-.71875.992188-1.101563.308593-.367187.597656-.769531.867187-1.179687.269531-.410157.53125-.828125.761719-1.257813.230468-.429687.4375-.882812.621094-1.332031.1875-.449219.359374-.917969.5-1.378906.136718-.46875.257812-.949219.359374-1.429688.097657-.480469.167969-.96875.21875-1.449219.050782-.492187.070313-.992187.070313-1.480468 0-.492188-.019531-.980469-.070313-1.472656-.050781-.488282-.121093-.976563-.21875-1.457032-.101562-.480468-.222656-.949218-.359374-1.421875-.140626-.46875-.3125-.929687-.5-1.378906-.183594-.460937-.390626-.898437-.621094-1.328125-.230469-.433594-.492188-.863281-.761719-1.261719-.269531-.410156-.558594-.808593-.867187-1.191406-.3125-.378906-.640626-.75-.992188-1.089844-.347656-.347656-.71875-.679687-1.097656-1-.371094-.296875-.773438-.597656-1.179688-.867187-.410156-.273438-.832031-.523438-1.261718-.75-.429688-.230469-.882813-.441406-1.332032-.632813-.449218-.179687-.917968-.347656-1.378906-.488281-.46875-.148438-.949219-.269531-1.429688-.359375-.480468-.101563-.96875-.171875-1.449218-.222656-.980469-.097657-1.972656-.097657-2.949219 0-.492187.050781-.980469.121093-1.460937.222656-.480469.089844-.949219.210937-1.421876.359375-.46875.140625-.929687.308594-1.378906.488281-.449218.191407-.898437.402344-1.328125.632813-.429687.226562-.859375.476562-1.261719.75-.410156.269531-.808593.570312-1.191406.867187-.378906.320313-.75.652344-1.089844 1-.347656.339844-.679687.710938-.988281 1.089844-.308593.382813-.609375.78125-.878906 1.191406-.269531.398438-.519531.828125-.75 1.261719-.230469.429688-.441406.867188-.632813 1.328125-.179687.449219-.347656.910156-.488281 1.378906-.148437.472657-.269531.941407-.359375 1.421875-.101562.480469-.167968.96875-.21875 1.457032-.050781.492187-.082031.980468-.082031 1.472656 0 3.949218 1.601563 7.808594 4.398437 10.609375.339844.347656.710938.679687 1.089844.988281zm0 0" fill="#225378"/><path d="m146.1875 59.207031c.089844.476563.207031.957031.359375 1.429688.140625.457031.308594.929687.488281 1.378906.191406.449219.398438.898437.628906 1.328125.230469.429688.480469.851562.75 1.261719.273438.410156.570313.808593.882813 1.179687.308594.378906.640625.75.988281 1.101563.339844.347656.710938.679687 1.089844.988281.382812.308594.78125.601562 1.191406.871094.398438.269531.828125.527344 1.257813.757812.433593.230469.878906.441406 1.332031.621094.449219.191406.910156.359375 1.378906.5.472656.140625.949219.261719 1.417969.359375.480469.101563.972656.171875 1.460937.21875.492188.050781.992188.070313 1.472657.070313.488281 0 .988281-.019532 1.476562-.070313.492188-.046875.972657-.117187 1.460938-.21875.472656-.097656.949219-.21875 1.421875-.359375.46875-.140625.929687-.308594 1.378906-.5.449219-.179688.898438-.390625 1.328125-.621094.433594-.230468.859375-.488281 1.261719-.757812.410156-.269532.808594-.5625 1.191406-.871094.378906-.308594.75-.640625 1.089844-.988281.347656-.351563.679687-.722657.988281-1.101563.3125-.371094.601563-.769531.878906-1.179687.261719-.410157.523438-.832031.75-1.261719.230469-.429688.441407-.878906.621094-1.328125.191406-.449219.359375-.921875.5-1.378906.140625-.472657.257813-.953125.359375-1.429688.101562-.480469.171875-.972656.21875-1.453125.050781-.488281.070312-.988281.070312-1.476562 0-.492188-.019531-.980469-.070312-1.472656-.046875-.488282-.117188-.980469-.21875-1.460938-.101562-.476562-.21875-.949219-.359375-1.417969s-.308594-.929687-.5-1.378906c-.179687-.449219-.390625-.902344-.621094-1.332031-.226562-.429688-.488281-.859375-.75-1.257813-.277343-.410156-.566406-.8125-.878906-1.191406-.308594-.378906-.640625-.75-.988281-1.089844-.339844-.351562-.710938-.679687-1.089844-.988281-.382812-.3125-.78125-.613281-1.191406-.882812-.398438-.269532-.828125-.519532-1.261719-.75-.429687-.230469-.878906-.4375-1.328125-.628907-.449219-.179687-.910156-.351562-1.378906-.488281-.472656-.140625-.949219-.269531-1.421875-.363281-.488281-.097657-.96875-.167969-1.460938-.21875-.976562-.097657-1.96875-.097657-2.949219 0-.488281.050781-.976562.121093-1.460937.21875-.46875.09375-.945313.222656-1.417969.363281-.46875.136719-.929687.308594-1.378906.488281-.453125.191407-.898438.398438-1.332031.628907-.429688.230468-.859375.480468-1.257813.75-.410156.269531-.8125.570312-1.191406.882812-.378906.308594-.75.636719-1.089844.988281-.351562.339844-.679687.710938-.988281 1.089844-.3125.378906-.609375.78125-.882813 1.191406-.269531.398438-.519531.828125-.75 1.257813-.226562.429687-.4375.882812-.628906 1.332031-.179687.449219-.351562.910156-.488281 1.378906-.152344.46875-.269531.941407-.359375 1.417969-.101562.480469-.171875.972656-.222656 1.460938-.050782.492187-.078125.980468-.078125 1.472656 0 .488281.027343.988281.078125 1.476562.050781.484375.121094.972656.222656 1.453125zm0 0" fill="#225378"/><path d="m193.472656 188.765625c-5.683594-6.023437-15.175781-6.304687-21.203125-.621094l-63.226562 59.613281c-3.125 2.953126-4.917969 7.117188-4.917969 11.417969.003906 4.300781 1.800781 8.460938 4.929688 11.410157l63.214843 59.605468c2.898438 2.730469 6.59375 4.085938 10.285157 4.085938 3.988281 0 7.964843-1.582032 10.917968-4.710938 5.683594-6.023437 5.402344-15.519531-.625-21.203125l-52.175781-49.195312 52.175781-49.195313c6.03125-5.683594 6.308594-15.179687.625-21.207031zm0 0" fill="#225378"/><path d="m288.242188 185.355469c-7.570313-3.371094-16.433594.03125-19.804688 7.601562l-53.535156 120.21875c-3.371094 7.570313.03125 16.433594 7.601562 19.804688 1.980469.882812 4.054688 1.300781 6.09375 1.300781 5.742188 0 11.222656-3.316406 13.710938-8.902344l53.535156-120.21875c3.371094-7.570312-.035156-16.433594-7.601562-19.804687zm0 0" fill="#225378"/><path d="m339.730469 188.144531c-6.027344-5.683593-15.519531-5.402343-21.203125.621094-5.683594 6.027344-5.402344 15.523437.625 21.203125l52.175781 49.199219-52.175781 49.195312c-6.027344 5.683594-6.308594 15.175781-.625 21.203125 2.953125 3.128906 6.929687 4.710938 10.917968 4.710938 3.6875 0 7.386719-1.355469 10.285157-4.085938l63.214843-59.605468c3.128907-2.949219 4.925782-7.109376 4.929688-11.410157 0-4.304687-1.792969-8.464843-4.929688-11.425781zm0 0" fill="#225378"/></g><g transform="matrix(-0.6158671975135803 -0.2965286374092102 -0.2965286374092102 0.6158671975135803 155.1966552734375 85.78115844726562)" id="L1_4"><path d="m48.747 6.335-1.494 1.33 7.409 8.335-7.409 8.335 1.494 1.33 8.591-9.665z" fill="#105b63"/><path d="m39.253 6.335-8.591 9.665 8.591 9.665 1.494-1.33-7.409-8.335 7.409-8.335z" fill="#105b63"/><path d="m32.955 15h22.091v2h-22.091z" transform="matrix(0.09000000357627869 -0.9959999918937683 0.9959999918937683 0.09000000357627869 24.091999053955078 58.375)" fill="#105b63"/><path d="m21.253 39.664 7.409 8.336-7.409 8.336 1.494 1.328 8.591-9.664-8.591-9.664z" fill="#105b63"/><path d="m13.253 38.336-8.591 9.664 8.591 9.664 1.494-1.328-7.409-8.336 7.409-8.336z" fill="#105b63"/><path d="m6.955 47h22.091v2h-22.091z" transform="matrix(0.09099999815225601 -0.9959999918937683 0.9959999918937683 0.09099999815225601 -31.43600082397461 61.56700134277344)" fill="#105b63"/><path d="m5 21h2v2h-2z" fill="#105b63"/><path d="m9 21h2v2h-2z" fill="#105b63"/><path d="m13 21h2v2h-2z" fill="#105b63"/><path d="m21 29h2v2h-2z" fill="#105b63"/><path d="m17 29h2v2h-2z" fill="#105b63"/><path d="m5 29h10v2h-10z" fill="#105b63"/><path d="m41 39h2v8h-2z" fill="#105b63"/><path d="m53 39h2v8h-2z" fill="#105b63"/><path d="m39 45v-4c0-1.103-.897-2-2-2h-2c-1.103 0-2 .897-2 2v4c0 1.103.897 2 2 2h2c1.103 0 2-.897 2-2zm-4-4h2l.002 4h-2.002z" fill="#105b63"/><path d="m51 45v-4c0-1.103-.897-2-2-2h-2c-1.103 0-2 .897-2 2v4c0 1.103.897 2 2 2h2c1.103 0 2-.897 2-2zm-4-4h2l.002 4h-2.002z" fill="#105b63"/><path d="m33 49h2v8h-2z" fill="#105b63"/><path d="m41 49h-2c-1.103 0-2 .897-2 2v4c0 1.103.897 2 2 2h2c1.103 0 2-.897 2-2v-4c0-1.103-.897-2-2-2zm0 6h-2v-4h2z" fill="#105b63"/><path d="m45 49h2v8h-2z" fill="#105b63"/><path d="m53 49h-2c-1.103 0-2 .897-2 2v4c0 1.103.897 2 2 2h2c1.103 0 2-.897 2-2v-4c0-1.103-.897-2-2-2zm0 6h-2v-4h2z" fill="#105b63"/><path d="m58 1h-28c-2.757 0-5 2.243-5 5v11h-24v46h58v-32.101c2.279-.465 4-2.484 4-4.899v-20c0-2.757-2.243-5-5-5zm-33 18v6h-22v-6zm-22 42v-34h22.101c.465 2.279 2.484 4 4.899 4h27v30zm58-35c0 1.654-1.346 3-3 3h-28c-1.654 0-3-1.346-3-3v-20c0-1.654 1.346-3 3-3h28c1.654 0 3 1.346 3 3z" fill="#105b63"/><circle cx="58" cy="26" r="1" fill="#105b63"/><circle cx="58" cy="6" r="1" fill="#105b63"/><circle cx="30" cy="26" r="1" fill="#105b63"/><circle cx="30" cy="6" r="1" fill="#105b63"/></g><g transform="matrix(0.5883318781852722 -0.22628150880336761 0.22628150880336761 0.5883318781852722 269.3956298828125 85.4649429321289)" id="L1_7"><path d="m4.001 30.996h2.987c0 .003-.001.007-.001.01v16.001c0 3 1.526 5.796 4 7.46v1.533c-.547.007-.987.449-.987.997v2.007c-.553 0-1 .447-1 1v2.996c0 .553.447 1 1 1s1-.447 1-1v-1.996h10v1.996c0 .553.447 1 1 1s1-.447 1-1v-2.996c0-.553-.447-1-1-1v-2.007c0-.553-.447-1-1-1h-.005v-1.681c1.073-.774 2.054-1.785 2.909-3.042.001-.001.002-.001.002-.002l6.385-9.403c.001-.001.001-.002.001-.002.978-1.438.93-3.044-.121-4.095-1.15-1.15-3.003-1.16-4.218-.023-.001.001-.001.003-.003.004-.001.001-.003.001-.005.003l-.958.914v-7.674h14.025v7.674l-.958-.914c-.002-.002-.004-.002-.005-.003-.002-.001-.002-.003-.003-.004-1.216-1.137-3.068-1.127-4.218.023-1.051 1.051-1.099 2.657-.121 4.095 0 0 0 .001.001.002l6.385 9.403c0 .001.001.001.002.002.855 1.257 1.836 2.268 2.909 3.042v1.681h-.006c-.553 0-1 .447-1 1v2.01c-.546.008-.986.449-.986.997v2.996c0 .553.447 1 1 1s1-.447 1-1v-1.996h10v1.996c0 .553.447 1 1 1s1-.447 1-1v-2.996c0-.553-.447-1-1-1h-.014v-2.007c0-.548-.44-.989-.986-.997v-1.533c2.474-1.664 4-4.46 4-7.46v-16.001c0-.003-.001-.007-.001-.01h2.987c1.654 0 3-1.346 3-3v-24.996c0-1.654-1.346-3-3-3h-55.997c-1.654 0-3 1.346-3 3v24.996c0 1.654 1.346 3 3 3zm7.999 28.008v-1.007h7.99c.002 0 .003.001.005.001s.003-.001.005-.001v1.007zm16.757-19.817c.533.533-.006 1.392-.119 1.559l-.001.001-6.385 9.403v.001c-.826 1.211-1.767 2.157-2.795 2.814-.03.02-.047.05-.074.071-.055.044-.104.089-.148.143-.04.05-.073.1-.104.154-.03.056-.055.111-.075.173-.021.065-.032.13-.04.199-.004.035-.021.066-.021.103v2.189h-6.008v-2.061c0-.043-.02-.08-.024-.121-.009-.069-.018-.135-.04-.2-.021-.063-.052-.116-.084-.173-.031-.054-.063-.104-.104-.152-.047-.054-.101-.097-.157-.14-.032-.024-.054-.059-.09-.079-2.159-1.25-3.501-3.574-3.501-6.064v-16.001c0-.551.448-1 1-1s1 .448 1 1v7.001c0 .553.447 1 1 1s1-.447 1-1v-10c0-.551.448-1 1-1s1 .449 1 1v10c0 .553.447 1 1 1s1-.447 1-1v-11.947c.001-.022.013-.041.013-.063v-1.052c.034-.521.458-.938.987-.938.552 0 1 .449 1 1v13c0 .553.447 1 1 1s1-.447 1-1v-10c0-.551.448-1 1-1s1 .449 1 1v13c0 .049.021.091.027.137.012.079.018.158.048.234s.081.138.128.204c.027.037.04.081.073.115.003.003.007.004.01.007.092.095.201.172.325.225.124.052.257.078.389.078.128 0 .256-.026.377-.076.063-.026.114-.071.171-.109.048-.031.101-.051.143-.091l2.643-2.521c.424-.396 1.055-.405 1.436-.023zm-13.757-14.306c-.002.039-.012.076-.012.115h-.988v-1h1zm28 .116h-22.001v-1h22.001zm-18.013 3.999v-.989c0-.356-.073-.693-.188-1.01h14.4c-.114.317-.188.654-.188 1.01v.989zm19.012 30.008v-1.007h.001c.002 0 .003.001.005.001s.003-.001.005-.001h7.989v1.007zm7.513-5.933c-.036.021-.058.055-.09.08-.057.042-.11.085-.157.139-.041.048-.072.099-.104.153-.032.056-.063.109-.084.172-.022.065-.031.131-.04.2-.005.042-.024.078-.024.121v2.061h-6.008v-2.189c0-.036-.017-.067-.021-.104-.008-.068-.02-.133-.04-.198-.02-.062-.045-.117-.075-.173-.03-.055-.063-.104-.104-.154-.045-.054-.094-.099-.148-.143-.027-.021-.044-.052-.074-.071-1.028-.657-1.969-1.604-2.795-2.814v-.001l-6.385-9.403-.001-.001c-.113-.167-.652-1.025-.119-1.559.382-.382 1.013-.372 1.437.022l2.643 2.521c.043.041.096.06.143.091.057.038.107.084.171.109.121.05.249.076.377.076.132 0 .265-.026.389-.078.124-.053.233-.13.325-.225.003-.003.007-.004.01-.007.032-.034.046-.078.072-.115.048-.065.099-.128.129-.205.03-.074.036-.153.048-.232.007-.047.027-.089.027-.138v-13c0-.551.448-1 1-1s1 .449 1 1v10c0 .553.447 1 1 1s1-.447 1-1v-13c0-.551.448-1 1-1 .529 0 .953.417.987.938v1.052c0 .022.012.041.013.063v11.947c0 .553.447 1 1 1s1-.447 1-1v-10c0-.551.448-1 1-1s1 .449 1 1v10c0 .553.447 1 1 1s1-.447 1-1v-7.001c0-.551.448-1 1-1s1 .448 1 1v16.001c-.001 2.491-1.343 4.815-3.502 6.065zm-1.512-28.074h-.988c0-.04-.01-.076-.012-.115v-.884h1zm-46.999-21.997c0-.551.448-1 1-1h55.998c.552 0 1 .449 1 1v24.996c0 .551-.448 1-1 1h-3.775c-.549-.603-1.333-.989-2.211-.989-.353 0-.686.072-1 .184v-.184c0-.889-.396-1.681-1.013-2.23v-2.779c0-.552-.447-1-1-1h-3c-.281 0-.533.117-.715.304-.388-.184-.815-.294-1.272-.294-.464 0-.898.115-1.291.304-.183-.191-.437-.313-.722-.313h-24.001c-.285 0-.539.122-.721.313-.393-.189-.827-.304-1.291-.304-.457 0-.885.11-1.272.294-.182-.187-.434-.304-.715-.304h-3c-.553 0-1 .448-1 1v2.779c-.616.55-1.013 1.341-1.013 2.23v.184c-.314-.112-.647-.184-1-.184-.878 0-1.662.386-2.211.989h-3.775c-.552 0-1-.449-1-1z" fill="#225378"/><path d="m6 14.999h3c.553 0 1-.448 1-1v-3c0-.552-.447-1-1-1h-3c-.553 0-1 .448-1 1v3c0 .552.447 1 1 1zm1-3h1v1h-1z" fill="#225378"/><path d="m13 14.999h3c.553 0 1-.448 1-1v-3c0-.552-.447-1-1-1h-3c-.553 0-1 .448-1 1v3c0 .552.447 1 1 1zm1-3h1v1h-1z" fill="#225378"/><path d="m20 14.999h3c.553 0 1-.448 1-1v-3c0-.552-.447-1-1-1h-3c-.553 0-1 .448-1 1v3c0 .552.447 1 1 1zm1-3h1v1h-1z" fill="#225378"/><path d="m27 14.999h3c.553 0 1-.448 1-1v-3c0-.552-.447-1-1-1h-3c-.553 0-1 .448-1 1v3c0 .552.447 1 1 1zm1-3h1v1h-1z" fill="#225378"/><path d="m34 14.999h3c.553 0 1-.448 1-1v-3c0-.552-.447-1-1-1h-3c-.553 0-1 .448-1 1v3c0 .552.447 1 1 1zm1-3h1v1h-1z" fill="#225378"/><path d="m41 14.999h3c.553 0 1-.448 1-1v-3c0-.552-.447-1-1-1h-3c-.553 0-1 .448-1 1v3c0 .552.447 1 1 1zm1-3h1v1h-1z" fill="#225378"/><path d="m48 14.999h3c.553 0 1-.448 1-1v-3c0-.552-.447-1-1-1h-3c-.553 0-1 .448-1 1v3c0 .552.447 1 1 1zm1-3h1v1h-1z" fill="#225378"/><path d="m6 20.999h10c.553 0 1-.448 1-1v-3c0-.552-.447-1-1-1h-10c-.553 0-1 .448-1 1v3c0 .552.447 1 1 1zm1-3h8v1h-8z" fill="#225378"/><path d="m20 20.999h3c.553 0 1-.448 1-1v-3c0-.552-.447-1-1-1h-3c-.553 0-1 .448-1 1v3c0 .552.447 1 1 1zm1-3h1v1h-1z" fill="#225378"/><path d="m27 20.999h3c.553 0 1-.448 1-1v-3c0-.552-.447-1-1-1h-3c-.553 0-1 .448-1 1v3c0 .552.447 1 1 1zm1-3h1v1h-1z" fill="#225378"/><path d="m34 20.999h3c.553 0 1-.448 1-1v-3c0-.552-.447-1-1-1h-3c-.553 0-1 .448-1 1v3c0 .552.447 1 1 1zm1-3h1v1h-1z" fill="#225378"/><path d="m41 20.999h3c.553 0 1-.448 1-1v-3c0-.552-.447-1-1-1h-3c-.553 0-1 .448-1 1v3c0 .552.447 1 1 1zm1-3h1v1h-1z" fill="#225378"/><path d="m48 20.999h3c.553 0 1-.448 1-1v-3c0-.552-.447-1-1-1h-3c-.553 0-1 .448-1 1v3c0 .552.447 1 1 1zm1-3h1v1h-1z" fill="#225378"/><path d="m55 20.999h3c.553 0 1-.448 1-1v-9c0-.552-.447-1-1-1h-3c-.553 0-1 .448-1 1v9c0 .552.447 1 1 1zm1-9h1v7h-1z" fill="#225378"/><path d="m6 26.997h3c.553 0 1-.448 1-1v-3c0-.552-.447-1-1-1h-3c-.553 0-1 .448-1 1v3c0 .552.447 1 1 1zm1-3h1v1h-1z" fill="#225378"/><path d="m55 26.997h3c.553 0 1-.448 1-1v-3c0-.552-.447-1-1-1h-3c-.553 0-1 .448-1 1v3c0 .552.447 1 1 1zm1-3h1v1h-1z" fill="#225378"/><path d="m7.5 9c1.379 0 2.5-1.122 2.5-2.5s-1.121-2.5-2.5-2.5-2.5 1.121-2.5 2.5 1.121 2.5 2.5 2.5zm0-3c.275 0 .5.224.5.5s-.225.5-.5.5-.5-.225-.5-.5.225-.5.5-.5z" fill="#225378"/><path d="m14.5 9c1.379 0 2.5-1.122 2.5-2.5s-1.121-2.5-2.5-2.5-2.5 1.121-2.5 2.5 1.121 2.5 2.5 2.5zm0-3c.275 0 .5.224.5.5s-.225.5-.5.5-.5-.225-.5-.5.225-.5.5-.5z" fill="#225378"/><path d="m21.5 9c1.379 0 2.5-1.122 2.5-2.5s-1.121-2.5-2.5-2.5-2.5 1.121-2.5 2.5 1.121 2.5 2.5 2.5zm0-3c.275 0 .5.224.5.5s-.225.5-.5.5-.5-.225-.5-.5.225-.5.5-.5z" fill="#225378"/><path d="m28.5 9c1.379 0 2.5-1.122 2.5-2.5s-1.121-2.5-2.5-2.5-2.5 1.121-2.5 2.5 1.121 2.5 2.5 2.5zm0-3c.275 0 .5.224.5.5s-.225.5-.5.5-.5-.225-.5-.5.225-.5.5-.5z" fill="#225378"/><path d="m35.5 9c1.379 0 2.5-1.122 2.5-2.5s-1.121-2.5-2.5-2.5-2.5 1.121-2.5 2.5 1.121 2.5 2.5 2.5zm0-3c.275 0 .5.224.5.5s-.225.5-.5.5-.5-.225-.5-.5.225-.5.5-.5z" fill="#225378"/><path d="m42.5 9c1.379 0 2.5-1.122 2.5-2.5s-1.121-2.5-2.5-2.5-2.5 1.121-2.5 2.5 1.121 2.5 2.5 2.5zm0-3c.275 0 .5.224.5.5s-.225.5-.5.5-.5-.225-.5-.5.225-.5.5-.5z" fill="#225378"/><path d="m49.5 9c1.379 0 2.5-1.122 2.5-2.5s-1.121-2.5-2.5-2.5-2.5 1.121-2.5 2.5 1.121 2.5 2.5 2.5zm0-3c.275 0 .5.224.5.5s-.225.5-.5.5-.5-.225-.5-.5.225-.5.5-.5z" fill="#225378"/><path d="m56.5 9c1.379 0 2.5-1.122 2.5-2.5s-1.121-2.5-2.5-2.5-2.5 1.121-2.5 2.5 1.121 2.5 2.5 2.5zm0-3c.275 0 .5.224.5.5s-.225.5-.5.5-.5-.225-.5-.5.225-.5.5-.5z" fill="#225378"/></g><g transform="matrix(0.5122189521789551 -0.13362234830856323 0.13362234830856323 0.5122189521789551 99.54571533203125 250.95172119140625)" id="L1_8"><path d="m15.501 41.004c1.93 0 3.5-1.57 3.5-3.5s-1.57-3.5-3.5-3.5-3.5 1.57-3.5 3.5 1.57 3.5 3.5 3.5zm0-5c.827 0 1.5.673 1.5 1.5s-.673 1.5-1.5 1.5-1.5-.673-1.5-1.5.673-1.5 1.5-1.5z" fill="#225378"/><path d="m57 63v-4c0-.553-.447-1-1-1-.552 0-1-.448-1-1 0-.553-.447-1-1-1h-44c-.553 0-1 .447-1 1 0 .552-.448 1-1 1-.553 0-1 .447-1 1v4c0 .553.447 1 1 1s1-.447 1-1v-3.185c.848-.302 1.514-.968 1.815-1.815h42.369c.302.848.968 1.514 1.815 1.815v3.185c0 .553.447 1 1 1s1.001-.447 1.001-1z" fill="#225378"/><path d="m1 53h1v10c0 .553.447 1 1 1s1-.447 1-1v-10h56v10c0 .553.447 1 1 1s1-.447 1-1v-10h1c.553 0 1-.447 1-1v-4c0-.553-.447-1-1-1h-1v-6c0-3.859-3.141-7-7-7 0 0 0 0-.001 0l-2.999.002v-1.625c3.58-2.078 5.999-5.943 6-10.372 0-.001 0-.001 0-.001v-9.004c0-2.967-2.167-5.432-5-5.91v-3.09c0-.553-.447-1-1-1h-8c-.005 0-.009.003-.013.003-5.508.007-9.987 4.489-9.987 9.997v9.002c0 4.43 2.419 8.297 6 10.375v1.625l-2.999-.002c-.001 0-.001 0-.001 0-3.859 0-7 3.141-7 7v2.004h-.999v-14c0-1.654-1.346-3-3-3h-21c-1.654 0-3 1.346-3 3v16.998c0 .352.072.685.184.998h-1.185c-.553 0-1 .447-1 1v4c0 .553.447 1 1 1zm43-47.998c.004 0 .006-.002.01-.002h6.99v3c0 .553.447 1 1 1 2.206 0 4 1.794 4 4v2.586l-1.293-1.293c-.014-.014-.031-.018-.045-.029-.053-.048-.111-.08-.171-.114-.055-.031-.105-.065-.163-.086-.06-.021-.12-.025-.182-.035-.065-.01-.128-.022-.193-.02-.061.003-.117.021-.177.034-.067.017-.134.03-.198.061-.017.008-.035.007-.052.016-.035.019-3.539 1.88-7.526 1.88-3.968 0-7.492-1.862-7.527-1.881-.017-.009-.034-.008-.051-.016-.063-.029-.129-.044-.197-.06-.061-.015-.119-.033-.182-.035-.062-.003-.12.01-.182.019-.065.009-.13.015-.192.037-.056.02-.105.054-.158.084-.061.035-.12.067-.173.115-.014.012-.031.016-.045.029l-1.293 1.294v-2.586c0-4.41 3.589-7.998 8-7.998zm-8 17v-3.588l2.204-2.204c1.309.596 4.356 1.79 7.796 1.79s6.487-1.194 7.796-1.79l2.204 2.204v3.588c0 5.513-4.486 9.998-10 9.998s-10-4.485-10-9.998zm10 11.998c1.404 0 2.747-.255 4-.7v1.288l-1.27 1.269-2.414-.805c-.036-.012-.072-.006-.109-.014-.068-.015-.135-.025-.207-.025-.071 0-.138.011-.207.025-.036.008-.072.001-.109.014l-2.414.805-1.27-1.269v-1.288c1.253.445 2.596.7 4 .7zm-14 7c0-2.757 2.243-5 5-5l3.586.002 1.707 1.705c.016.016.037.021.054.035.065.059.137.104.216.144.032.016.062.035.095.048.109.04.223.066.342.066.104 0 .211-.017.316-.052l2.684-.894 2.684.895c.105.034.212.051.316.051.119 0 .233-.026.343-.066.034-.013.063-.032.095-.048.079-.039.15-.085.216-.144.017-.015.038-.02.054-.035l1.707-1.705 3.585-.002c2.757 0 5 2.243 5 5v6h-21.183c.111-.313.183-.646.183-.996v-2c0-.553-.447-1-1-1h-6zm5 4.004v1c0 .545-.438.985-.98.996h-7.202c.11-.312.182-.642.182-.99 0-.003.002-.005.002-.008v-.998zm-31.999-17h21c.552 0 1 .448 1 1v14.995c0 .002-.001.003-.001.005s.001.003.001.005v1.99c0 .002-.001.003-.001.005 0 .545-.438.985-.98.996h-21.029c-.547-.006-.99-.449-.99-.998v-16.998c0-.552.448-1 1-1zm-3.001 20.996h1.99c.004 0 .006.002.01.002h20.989c.004 0 .007.002.01.002h11.001c.014 0 .025-.004.039-.004h24.941c.007 0 .013.004.02.004s.013-.004.02-.004h.98v2h-60z" fill="#225378"/><path d="m46.03 46c.552 0 1-.447 1-1s-.448-1-1-1h-.01c-.552 0-.994.447-.994 1s.452 1 1.004 1z" fill="#225378"/><path d="m46.03 42c.552 0 1-.447 1-1s-.448-1-1-1h-.01c-.552 0-.994.447-.994 1s.452 1 1.004 1z" fill="#225378"/><path d="m14.533 22.947.76.76c.187.188.442.293.707.293.266 0 .52-.105.707-.293l.915-.916c5.454-1.015 9.378-5.711 9.378-11.291 0-6.341-5.159-11.5-11.5-11.5s-11.5 5.159-11.5 11.5c0 5.998 4.596 10.953 10.533 11.447zm.967-20.947c5.238 0 9.5 4.262 9.5 9.5 0 4.7-3.371 8.642-8.016 9.371-.209.033-.402.132-.552.281l-.432.434-.318-.318c-.176-.176-.41-.279-.657-.292-5.061-.251-9.025-4.413-9.025-9.476 0-5.238 4.262-9.5 9.5-9.5z" fill="#225378"/><path d="m18.793 14.695c.195.195.451.293.707.293s.512-.098.707-.293l2.488-2.488c.004-.004.008-.004.012-.008.196-.195.293-.452.293-.709s-.097-.513-.293-.709c-.004-.004-.008-.004-.012-.008l-2.488-2.49c-.391-.391-1.023-.391-1.414 0-.391.39-.391 1.023 0 1.414l1.791 1.793-1.791 1.791c-.391.391-.391 1.024 0 1.414z" fill="#225378"/><path d="m10.793 14.695c.195.195.451.293.707.293s.512-.098.707-.293c.391-.391.391-1.023 0-1.414l-1.791-1.791 1.791-1.793c.391-.391.391-1.024 0-1.414-.391-.391-1.023-.391-1.414 0l-2.488 2.49c-.004.004-.008.004-.012.008-.196.197-.293.452-.293.709s.097.514.293.709c.004.004.008.004.012.008z" fill="#225378"/><path d="m13.685 16.937c.105.035.212.052.316.052.419 0 .81-.265.948-.684l3-9.004c.175-.524-.108-1.091-.632-1.265-.528-.177-1.092.108-1.265.632l-3 9.004c-.174.524.109 1.091.633 1.265z" fill="#225378"/></g><g transform="matrix(-0.537372350692749 0.13434308767318726 0.13434308767318726 0.537372350692749 218.41468811035156 162.64012145996094)" id="L1_9"><path d="m29.03 5c.552 0 1-.447 1-1s-.448-1-1-1h-.01c-.552 0-.994.447-.994 1s.452 1 1.004 1z" fill="#225378"/><path d="m32 5h3c.553 0 1-.447 1-1s-.447-1-1-1h-3c-.553 0-1 .447-1 1s.447 1 1 1z" fill="#225378"/><path d="m50 57v-50.998c0-3.305-2.685-5.992-5.987-5.999-.004 0-.008-.003-.013-.003h-24c-3.309 0-6 2.691-6 6v51c0 3.859 3.141 7 7 7h22c3.859 0 7-3.141 7-7zm-2-7h-32v-41.998h32zm-32 2h16 16v1c0 2.757-2.243 5-5 5h-11-11c-2.757 0-5-2.243-5-5zm4-50h23.99c.004 0 .006.002.01.002 2.206 0 4 1.794 4 4h-32v-.002c0-2.206 1.794-4 4-4zm23 60h-22c-2.418 0-4.438-1.726-4.9-4.01 1.264 1.241 2.994 2.01 4.9 2.01h22c1.906 0 3.636-.769 4.9-2.01-.462 2.284-2.482 4.01-4.9 4.01z" fill="#225378"/><path d="m29 55c0 1.654 1.346 3 3 3s3-1.346 3-3-1.346-3-3-3-3 1.346-3 3zm3-1c.552 0 1 .448 1 1s-.448 1-1 1-1-.448-1-1 .448-1 1-1z" fill="#225378"/><path d="m23 42.998h18c2.757 0 5-2.243 5-5v-18c0-2.757-2.243-5-5-5h-18c-2.757 0-5 2.243-5 5v18c0 2.757 2.243 5 5 5zm-3-23c0-1.654 1.346-3 3-3h18c1.654 0 3 1.346 3 3v18c0 1.654-1.346 3-3 3h-18c-1.654 0-3-1.346-3-3z" fill="#225378"/><path d="m28.001 32.002c.256 0 .512-.098.707-.293.391-.391.391-1.023 0-1.414l-1.292-1.292 1.292-1.293c.391-.391.391-1.023 0-1.414s-1.023-.391-1.414 0l-1.999 2c-.391.391-.391 1.023 0 1.414l1.999 1.999c.195.195.451.293.707.293z" fill="#225378"/><path d="m35.299 31.709c.195.195.451.293.707.293s.512-.098.707-.293l1.999-1.999c.391-.391.391-1.023 0-1.414l-1.999-2c-.391-.391-1.023-.391-1.414 0s-.391 1.023 0 1.414l1.292 1.293-1.292 1.292c-.391.391-.391 1.023 0 1.414z" fill="#225378"/><path d="m30.687 32.951c.105.035.212.052.316.052.419 0 .81-.265.949-.684l1.998-6c.175-.524-.108-1.091-.632-1.265-.527-.175-1.091.108-1.265.632l-1.999 6c-.174.525.109 1.091.633 1.265z" fill="#225378"/><path d="m32 40c6.065 0 11-4.935 11-11s-4.935-11-11-11-11 4.935-11 11 4.935 11 11 11zm0-20c4.963 0 9 4.037 9 9s-4.037 9-9 9-9-4.037-9-9 4.037-9 9-9z" fill="#225378"/></g><g transform="matrix(0.5310289263725281 0.09235285222530365 -0.09235285222530365 0.5310289263725281 189.5821533203125 -13.5164794921875)" id="L1_10"><path d="m42 19.151c-.033.02-.071.025-.104.049l-1.997 1.5c-.441.332-.53.959-.199 1.4.196.262.497.399.801.399.209 0 .42-.065.6-.2l.069-.052c-.975 3.32-4.043 5.753-7.673 5.753-2.425 0-4.691-1.083-6.22-2.971-.347-.429-.978-.495-1.406-.148-.43.348-.496.978-.148 1.406 1.91 2.359 4.743 3.713 7.774 3.713 4.633 0 8.529-3.173 9.659-7.456l.044.059c.196.262.497.399.801.399.209 0 .42-.065.6-.2.441-.332.53-.959.199-1.4l-1.503-2.002c-.015-.02-.036-.028-.052-.046-.046-.053-.098-.095-.153-.137-.05-.037-.097-.074-.151-.102-.056-.028-.116-.044-.178-.062-.065-.019-.128-.035-.195-.04-.025 0-.047-.013-.071-.013-.042 0-.077.019-.117.023-.066.008-.13.018-.194.039-.067.023-.125.054-.186.089z" fill="#105b63"/><path d="m60.496 26.998c0-5.191-3.979-9.469-9.048-9.95-.5-9.482-8.347-17.048-17.951-17.048-7.442 0-13.845 4.541-16.581 10.998h-.412c-7.168 0-13 5.833-13 13.002 0 5.396 3.305 10.031 7.996 11.995v3.066c-3.939.495-7 3.859-7.001 7.931.001 4.411 3.591 8 8.001 8 4.411 0 7.999-3.589 7.999-8 0-4.072-3.06-7.436-6.999-7.931v-2.426c.966.23 1.969.365 3.004.365h13.997v7.051c-5.046.504-9 4.773-9 9.949 0 5.514 4.486 10 10 10s10-4.486 10-10c0-5.176-3.954-9.445-9-9.949v-7.051h16.995v2.062c-3.939.495-7 3.859-7.001 7.931.001 4.411 3.591 8 8.001 8 4.411 0 7.999-3.589 7.999-8 0-4.072-3.06-7.436-6.999-7.931v-2.112c5.046-.504 9-4.774 9-9.952zm-41.997 19.994c0 3.309-2.691 6-5.999 6-3.309 0-6-2.691-6.001-6 .001-3.309 2.692-6 6.001-6 3.308 0 5.999 2.692 5.999 6zm21.002 7.008c0 4.411-3.589 8-8 8s-8-3.589-8-8 3.589-8 8-8 8 3.589 8 8zm-33.997-30c0-5.969 4.78-10.833 10.712-10.987-.458 1.586-.718 3.256-.718 4.987 0 .553.447 1 1 1s1-.447 1-1c0-8.822 7.177-16 15.999-16s15.999 7.178 15.999 16c0 .553.447 1 1 1h.001c4.411 0 7.999 3.588 7.999 7.998 0 4.412-3.588 8.002-7.999 8.002h-33.993c-6.066 0-11-4.935-11-11zm50.991 22.992c0 3.309-2.691 6-5.999 6-3.309 0-6-2.691-6.001-6 .001-3.309 2.692-6 6.001-6 3.308 0 5.999 2.692 5.999 6z" fill="#105b63"/><path d="m33.792 56.703c.195.195.451.293.707.293s.512-.098.707-.293l1.993-1.992c.002-.002.004-.002.006-.004.195-.195.293-.452.293-.708s-.098-.513-.293-.708c-.002-.002-.004-.002-.006-.004l-1.993-1.994c-.391-.391-1.023-.391-1.414 0s-.391 1.023 0 1.414l1.291 1.292-1.291 1.29c-.391.391-.391 1.024 0 1.414z" fill="#105b63"/><path d="m29.208 51.293c-.391-.391-1.023-.391-1.414 0l-1.988 1.99c-.004.004-.009.004-.012.008-.196.196-.293.452-.292.709-.001.257.096.514.292.709.003.004.008.004.012.008l1.988 1.988c.195.195.451.293.707.293s.512-.098.707-.293c.391-.391.391-1.023 0-1.414l-1.291-1.291 1.291-1.293c.391-.391.391-1.024 0-1.414z" fill="#105b63"/><path d="m30.259 58.972c.081.021.163.03.243.03.448 0 .855-.303.969-.758l1.999-8.002c.135-.535-.191-1.078-.728-1.212-.538-.137-1.079.191-1.212.728l-1.999 8.002c-.135.535.192 1.078.728 1.212z" fill="#105b63"/><path d="m52.784 48.707c.195.195.451.293.707.293s.512-.098.707-.293l.995-.994c.002-.002.004-.002.006-.004.195-.195.293-.452.293-.708s-.098-.513-.293-.708c-.002-.002-.004-.002-.006-.004l-.99-.99c-.391-.391-1.023-.391-1.414 0s-.391 1.023 0 1.414l.288.288-.293.292c-.39.39-.39 1.023 0 1.414z" fill="#105b63"/><path d="m48.205 45.295c-.391-.391-1.023-.391-1.414 0l-.995.994c-.002.002-.004.002-.006.004-.195.195-.293.452-.293.708s.098.513.293.708c.002.002.004.002.006.004l.995.994c.195.195.451.293.707.293s.512-.098.707-.293c.391-.391.391-1.024 0-1.414l-.292-.292.292-.292c.391-.39.391-1.023 0-1.414z" fill="#105b63"/><path d="m50.023 44.754-.998 3.998c-.133.536.192 1.079.729 1.213.081.02.163.029.243.029.448 0 .855-.304.97-.758l.998-3.998c.133-.536-.192-1.079-.729-1.213-.538-.131-1.079.194-1.213.729z" fill="#105b63"/><path d="m14.788 48.707c.195.195.451.293.707.293s.512-.098.707-.293l.995-.994c.002-.002.004-.002.006-.004.195-.195.293-.452.293-.708s-.098-.513-.293-.708c-.002-.002-.004-.002-.006-.004l-.99-.99c-.391-.391-1.023-.391-1.414 0s-.391 1.023 0 1.414l.288.288-.293.292c-.391.39-.391 1.023 0 1.414z" fill="#105b63"/><path d="m10.209 45.295c-.391-.391-1.023-.391-1.414 0l-.995.994c-.002.002-.004.002-.006.004-.195.195-.293.452-.293.708s.098.513.293.708c.002.002.004.002.006.004l.995.994c.195.195.451.293.707.293s.512-.098.707-.293c.391-.391.391-1.024 0-1.414l-.292-.292.292-.292c.391-.39.391-1.023 0-1.414z" fill="#105b63"/><path d="m12.027 44.754-.998 3.998c-.133.536.192 1.079.729 1.213.081.02.163.029.243.029.448 0 .855-.304.97-.758l.998-3.998c.133-.536-.192-1.079-.729-1.213-.535-.131-1.079.194-1.213.729z" fill="#105b63"/><path d="m23.698 20.604c.001.001.001.001.002.001v.001c.013.017.032.022.046.038.068.081.15.144.241.199.026.017.045.046.072.06.008.004.017.002.024.006.127.059.266.096.415.096h.001c.104 0 .209-.017.311-.05.01-.003.017-.01.025-.013.006-.002.011-.007.017-.009.04-.015.073-.037.11-.057.045-.024.094-.039.136-.071.001 0 .001-.001.002-.002l1.997-1.504c.441-.332.529-.959.197-1.4-.331-.439-.956-.529-1.4-.197l-.067.051c.976-3.317 4.043-5.748 7.672-5.748 2.425 0 4.691 1.083 6.22 2.971.347.429.977.495 1.406.148.43-.348.496-.978.148-1.406-1.91-2.359-4.743-3.713-7.774-3.713-4.632 0-8.527 3.17-9.658 7.451l-.04-.053c-.33-.44-.958-.533-1.4-.201-.441.331-.532.958-.201 1.4z" fill="#105b63"/></g><g transform="matrix(0.48275861144065857 -0.09195402264595032 0.09195402264595032 0.48275861144065857 15.47377872467041 170.9935302734375)" id="L1_11"><path d="m63 44h-1v-37c0-1.654-1.346-3-3-3h-22v-2c0-.552-.447-1-1-1h-8c-.553 0-1 .448-1 1v2h-22c-1.654 0-3 1.346-3 3v37h-1c-.553 0-1 .447-1 1v3c0 .553.447 1 1 1h18.581l-4.522 12.664c-.02.055-.015.109-.023.164-.012.058-.036.111-.036.172 0 .01.005.018.006.027.002.076.024.146.043.217.015.056.02.113.042.164.025.056.067.101.103.151.038.056.069.114.118.16.037.036.086.058.13.087.064.045.125.092.199.121.009.003.015.011.023.014.11.04.225.059.336.059h5c.122 0 .238-.028.35-.07.036-.014.068-.032.102-.05.072-.037.138-.081.198-.134.031-.027.061-.053.087-.082.055-.061.098-.129.137-.203.018-.033.04-.063.054-.099.004-.01.011-.017.015-.026l1.547-4.336h17.02l1.549 4.336c.004.01.011.017.015.026.014.036.036.065.054.099.039.074.082.143.137.202.026.03.056.056.087.083.061.053.126.097.198.134.034.018.065.036.102.05.11.042.226.07.348.07h5c.111 0 .226-.019.336-.059.009-.003.015-.011.022-.014.075-.029.136-.076.2-.12.044-.03.093-.052.13-.088.049-.046.08-.105.118-.16.035-.051.077-.096.103-.151.022-.051.027-.108.042-.164.019-.072.041-.142.043-.217.001-.009.006-.017.006-.027 0-.061-.024-.114-.035-.172-.009-.055-.004-.109-.023-.164l-4.523-12.664h18.581c.553 0 1-.447 1-1v-3c0-.553-.447-1-1-1zm-34-41h6v1h-6zm-25 4c0-.551.448-1 1-1h23 8 23c.552 0 1 .449 1 1v37h-56zm20.581 42-4.285 12h-2.877l4.285-12zm12.715 0 1.429 4h-13.45l1.429-4zm-13.092 7 .357-1h14.877l.357 1zm22.377 5h-2.877l-4.285-12h2.877zm15.419-14h-60v-1h60z" fill="#225378"/><path d="m54 23.008h-6v-3.01c0-.552-.447-1-1-1h-7.734l-6.266-3.579v-1.419h5c1.654 0 3-1.346 3-3s-1.346-3-3-3h-12c-1.654 0-3 1.346-3 3s1.346 3 3 3h5v1.419l-6.266 3.579h-7.729c-.553 0-1 .448-1 1v3.009h-6.001c-.553 0-1 .448-1 1v5.001c0 .552.447 1 1 1h5.913v2.992c0 .553.447 1 1 1h14.083v1.997h-5c-1.654 0-3 1.346-3 3s1.346 3 3 3h12c1.654 0 3-1.346 3-3s-1.346-3-3-3h-5v-1.997h14c.553 0 1-.447 1-1v-2.991h6c.553 0 1-.448 1-1v-5.001c0-.552-.447-1-1-1zm-28-13.008h12c.552 0 1 .449 1 1s-.448 1-1 1h-12c-.552 0-1-.449-1-1s.448-1 1-1zm12 29.997h-12c-.552 0-1-.448-1-1s.448-1 1-1h12c.552 0 1 .448 1 1s-.448 1-1 1zm-6-22.846 4.984 2.847-4.984 2.848-4.984-2.848zm-20.996 7.856h5.996c.002 0 .003.001.005.001s.003-.001.005-.001h5.992v3.001h-11.998zm34.996 6.993h-28.083v-1.992h6.085c.553 0 1-.448 1-1v-5.001c0-.552-.447-1-1-1h-5.997v-2.009h6.729l6.77 3.868c.153.088.325.132.496.132s.343-.044.496-.132l6.77-3.868h6.734v2.01h-5.998c-.553 0-1 .448-1 1v5.001c0 .552.447 1 1 1h5.998zm7-3.991h-5.956c-.016-.001-.028-.009-.044-.009s-.028.008-.044.009h-5.954v-3.001h11.998z" fill="#225378"/></g><g transform="matrix(0.5770658254623413 0.08877936005592346 -0.08877936005592346 0.5770658254623413 17.274587631225586 -18.28254508972168)" id="L1_13"><path d="m11.782 58.999-.6 3h-1.181c-.553 0-1 .447-1 1s.447 1 1 1h14c.553 0 1-.447 1-1s-.447-1-1-1h-1.181l-.6-3h8.78c1.654 0 3-1.346 3-3v-20.999c0-1.654-1.346-3-3-3h-27.996c-1.654 0-3 1.346-3 3v20.999c0 1.654 1.346 3 3 3zm9 3h-7.561l.6-3h6.361zm11.22-26.999v17.999h-26.998v-18.999h25.998c.552 0 1 .448 1 1zm-28.998-1v18.999h-1v-17.999c0-.552.448-1 1-1zm-1 21.999v-1h15.018c-.552 0-.994.447-.994 1s.452 1 1.005 1c.552 0 1-.447 1-1s-.448-1-1-1h14.97v1c0 .552-.448 1-1 1h-13.97-14.029c-.552 0-1-.448-1-1z" fill="#225378"/><path d="m61.996.001h-25.992c-1.103 0-2 .897-2 2v7.998c0 .366.105.704.278 1-.173.296-.278.634-.278 1v7.998c0 .366.105.704.278 1-.173.296-.278.634-.278 1v7.998c0 1.103.897 2 2 2h25.992c1.103 0 2-.897 2-2v-7.998c0-.366-.105-.704-.278-1 .173-.296.278-.634.278-1v-7.998c0-.366-.105-.704-.278-1 .173-.296.278-.634.278-1v-7.998c0-1.103-.897-2-2-2zm0 19.996h-25.992v-7.998h25.992zm-25.992-17.996h25.992l-.003 7.998h-25.989zm25.992 27.994h-25.992v-7.998h25.992z" fill="#225378"/><path d="m40.002 3c-1.654 0-3 1.346-3 3s1.346 3 3 3 3-1.346 3-3-1.346-3-3-3zm0 4c-.552 0-1-.448-1-1s.448-1 1-1 1 .448 1 1-.448 1-1 1z" fill="#225378"/><path d="m51.443 4.105c-.495-.245-1.094-.047-1.342.447l-1 2c-.247.494-.047 1.095.447 1.342.144.072.297.106.447.106.367 0 .72-.202.896-.553l1-2c.247-.494.047-1.094-.448-1.342z" fill="#225378"/><path d="m55.443 4.105c-.494-.245-1.094-.047-1.342.447l-1 2c-.247.494-.047 1.095.447 1.342.144.072.297.106.447.106.367 0 .72-.202.896-.553l1-2c.247-.494.047-1.094-.448-1.342z" fill="#225378"/><path d="m59.443 4.105c-.494-.245-1.094-.047-1.342.447l-1 2c-.247.494-.047 1.095.447 1.342.144.072.297.106.447.106.367 0 .72-.202.896-.553l1-2c.247-.494.047-1.094-.448-1.342z" fill="#225378"/><path d="m40.002 18.998c1.654 0 3-1.346 3-3s-1.346-3-3-3-3 1.346-3 3 1.346 3 3 3zm0-4c.552 0 1 .448 1 1s-.448 1-1 1-1-.448-1-1 .448-1 1-1z" fill="#225378"/><path d="m49.549 17.893c.144.071.296.105.446.105.367 0 .72-.202.896-.553l1-2c.247-.494.047-1.095-.447-1.342-.495-.246-1.094-.047-1.342.447l-1 2c-.248.495-.047 1.096.447 1.343z" fill="#225378"/><path d="m53.549 17.893c.144.071.296.105.446.105.367 0 .72-.202.896-.553l1-2c.247-.494.047-1.095-.447-1.342-.494-.246-1.094-.047-1.342.447l-1 2c-.248.495-.047 1.096.447 1.343z" fill="#225378"/><path d="m57.549 17.893c.144.071.296.105.446.105.367 0 .72-.202.896-.553l1-2c.247-.494.047-1.095-.447-1.342-.494-.246-1.094-.047-1.342.447l-1 2c-.248.495-.047 1.096.447 1.343z" fill="#225378"/><path d="m40.002 28.996c1.654 0 3-1.346 3-3s-1.346-3-3-3-3 1.346-3 3 1.346 3 3 3zm0-4c.552 0 1 .448 1 1s-.448 1-1 1-1-.448-1-1 .448-1 1-1z" fill="#225378"/><path d="m49.549 27.891c.144.071.296.105.446.105.367 0 .72-.202.896-.553l1-2c.247-.494.047-1.095-.447-1.342-.495-.245-1.094-.047-1.342.447l-1 2c-.248.495-.047 1.096.447 1.343z" fill="#225378"/><path d="m53.549 27.891c.144.071.296.105.446.105.367 0 .72-.202.896-.553l1-2c.247-.494.047-1.095-.447-1.342-.494-.245-1.094-.047-1.342.447l-1 2c-.248.495-.047 1.096.447 1.343z" fill="#225378"/><path d="m57.549 27.891c.144.071.296.105.446.105.367 0 .72-.202.896-.553l1-2c.247-.494.047-1.095-.447-1.342-.494-.245-1.094-.047-1.342.447l-1 2c-.248.495-.047 1.096.447 1.343z" fill="#225378"/><path d="m38.709 43.293c-.391-.391-1.023-.391-1.414 0l-1.999 1.999c-.093.092-.166.203-.217.326-.102.244-.102.52 0 .764.051.123.124.234.217.326l1.999 1.999c.195.195.451.293.707.293s.512-.098.707-.293c.391-.391.391-1.023 0-1.414l-.293-.293h10.581c.002 0 .003.001.005.001.553 0 1-.447 1-1v-12c0-.553-.447-1-1-1s-1 .447-1 1v10.999h-9.586l.293-.293c.391-.391.391-1.023 0-1.414z" fill="#225378"/><path d="m16.002 16.998c-.553 0-1 .447-1 1v12c0 .553.447 1 1 1s1-.447 1-1v-10.999h12.59l-.293.293c-.391.391-.391 1.023 0 1.414.195.195.451.293.707.293s.512-.098.707-.293l1.999-1.999c.093-.092.166-.203.217-.326.101-.244.101-.52 0-.764-.051-.123-.124-.234-.217-.326l-1.999-1.999c-.391-.391-1.023-.391-1.414 0s-.391 1.023 0 1.414l.293.293h-13.585c-.002 0-.003-.001-.005-.001z" fill="#225378"/><path d="m6.996 36.998h3c.553 0 1-.447 1-1s-.447-1-1-1h-3c-.553 0-1 .447-1 1s.447 1 1 1z" fill="#225378"/><path d="m9.996 50.002h-3c-.553 0-1 .447-1 1s.447 1 1 1h3c.553 0 1-.447 1-1s-.447-1-1-1z" fill="#225378"/><path d="m15 47.002h-7.004c-.553 0-1 .447-1 1s.447 1 1 1h7.004c.553 0 1-.447 1-1s-.447-1-1-1z" fill="#225378"/><path d="m7.998 41.999c0 .553.447 1 1 1h14.01c.553 0 1-.447 1-1s-.447-1-1-1h-14.01c-.553 0-1 .447-1 1z" fill="#225378"/><path d="m7.998 45.002c0 .553.447 1 1 1h19.016c.553 0 1-.447 1-1s-.447-1-1-1h-19.016c-.553 0-1 .447-1 1z" fill="#225378"/><path d="m6.996 38.999c0 .553.447 1 1 1h11.008c.553 0 1-.447 1-1s-.447-1-1-1h-11.008c-.553 0-1 .447-1 1z" fill="#225378"/></g></defs><g fi:class="KUsePattern" opacity="0.4"><pattern id="pattern_L1_4" width="350" height="350" patternUnits="userSpaceOnUse"><use xlink:href="#L1_4" x="-350" y="-350"/><use xlink:href="#L1_4" x="0" y="-350"/><use xlink:href="#L1_4" x="350" y="-350"/><use xlink:href="#L1_4" x="-350" y="0"/><use xlink:href="#L1_4" x="0" y="0"/><use xlink:href="#L1_4" x="350" y="0"/><use xlink:href="#L1_4" x="-350" y="350"/><use xlink:href="#L1_4" x="0" y="350"/><use xlink:href="#L1_4" x="350" y="350"/></pattern><rect x="0" y="0" width="100%" height="100%" fill="url(#pattern_L1_4)"/></g><g fi:class="KUsePattern" opacity="0.25"><pattern id="pattern_L1_1" width="350" height="350" patternUnits="userSpaceOnUse"><use xlink:href="#L1_1" x="-350" y="-350"/><use xlink:href="#L1_1" x="0" y="-350"/><use xlink:href="#L1_1" x="350" y="-350"/><use xlink:href="#L1_1" x="-350" y="0"/><use xlink:href="#L1_1" x="0" y="0"/><use xlink:href="#L1_1" x="350" y="0"/><use xlink:href="#L1_1" x="-350" y="350"/><use xlink:href="#L1_1" x="0" y="350"/><use xlink:href="#L1_1" x="350" y="350"/></pattern><rect x="0" y="0" width="100%" height="100%" fill="url(#pattern_L1_1)"/></g><g fi:class="KUsePattern" opacity="0.4"><pattern id="pattern_L1_9" width="350" height="350" patternUnits="userSpaceOnUse"><use xlink:href="#L1_9" x="-350" y="-350"/><use xlink:href="#L1_9" x="0" y="-350"/><use xlink:href="#L1_9" x="350" y="-350"/><use xlink:href="#L1_9" x="-350" y="0"/><use xlink:href="#L1_9" x="0" y="0"/><use xlink:href="#L1_9" x="350" y="0"/><use xlink:href="#L1_9" x="-350" y="350"/><use xlink:href="#L1_9" x="0" y="350"/><use xlink:href="#L1_9" x="350" y="350"/></pattern><rect x="0" y="0" width="100%" height="100%" fill="url(#pattern_L1_9)"/></g><g fi:class="KUsePattern" opacity="0.4"><pattern id="pattern_L1_7" width="350" height="350" patternUnits="userSpaceOnUse"><use xlink:href="#L1_7" x="-350" y="-350"/><use xlink:href="#L1_7" x="0" y="-350"/><use xlink:href="#L1_7" x="350" y="-350"/><use xlink:href="#L1_7" x="-350" y="0"/><use xlink:href="#L1_7" x="0" y="0"/><use xlink:href="#L1_7" x="350" y="0"/><use xlink:href="#L1_7" x="-350" y="350"/><use xlink:href="#L1_7" x="0" y="350"/><use xlink:href="#L1_7" x="350" y="350"/></pattern><rect x="0" y="0" width="100%" height="100%" fill="url(#pattern_L1_7)"/></g><g fi:class="KUsePattern" opacity="0.4"><pattern id="pattern_L1_8" width="350" height="350" patternUnits="userSpaceOnUse"><use xlink:href="#L1_8" x="-350" y="-350"/><use xlink:href="#L1_8" x="0" y="-350"/><use xlink:href="#L1_8" x="350" y="-350"/><use xlink:href="#L1_8" x="-350" y="0"/><use xlink:href="#L1_8" x="0" y="0"/><use xlink:href="#L1_8" x="350" y="0"/><use xlink:href="#L1_8" x="-350" y="350"/><use xlink:href="#L1_8" x="0" y="350"/><use xlink:href="#L1_8" x="350" y="350"/></pattern><rect x="0" y="0" width="100%" height="100%" fill="url(#pattern_L1_8)"/></g><g fi:class="KUsePattern" opacity="0.4"><pattern id="pattern_L1_10" width="350" height="350" patternUnits="userSpaceOnUse"><use xlink:href="#L1_10" x="-350" y="-350"/><use xlink:href="#L1_10" x="0" y="-350"/><use xlink:href="#L1_10" x="350" y="-350"/><use xlink:href="#L1_10" x="-350" y="0"/><use xlink:href="#L1_10" x="0" y="0"/><use xlink:href="#L1_10" x="350" y="0"/><use xlink:href="#L1_10" x="-350" y="350"/><use xlink:href="#L1_10" x="0" y="350"/><use xlink:href="#L1_10" x="350" y="350"/></pattern><rect x="0" y="0" width="100%" height="100%" fill="url(#pattern_L1_10)"/></g><g fi:class="KUsePattern" opacity="0.4"><pattern id="pattern_L1_11" width="350" height="350" patternUnits="userSpaceOnUse"><use xlink:href="#L1_11" x="-350" y="-350"/><use xlink:href="#L1_11" x="0" y="-350"/><use xlink:href="#L1_11" x="350" y="-350"/><use xlink:href="#L1_11" x="-350" y="0"/><use xlink:href="#L1_11" x="0" y="0"/><use xlink:href="#L1_11" x="350" y="0"/><use xlink:href="#L1_11" x="-350" y="350"/><use xlink:href="#L1_11" x="0" y="350"/><use xlink:href="#L1_11" x="350" y="350"/></pattern><rect x="0" y="0" width="100%" height="100%" fill="url(#pattern_L1_11)"/></g><g fi:class="KUsePattern" opacity="0.4"><pattern id="pattern_L1_13" width="350" height="350" patternUnits="userSpaceOnUse"><use xlink:href="#L1_13" x="-350" y="-350"/><use xlink:href="#L1_13" x="0" y="-350"/><use xlink:href="#L1_13" x="350" y="-350"/><use xlink:href="#L1_13" x="-350" y="0"/><use xlink:href="#L1_13" x="0" y="0"/><use xlink:href="#L1_13" x="350" y="0"/><use xlink:href="#L1_13" x="-350" y="350"/><use xlink:href="#L1_13" x="0" y="350"/><use xlink:href="#L1_13" x="350" y="350"/></pattern><rect x="0" y="0" width="100%" height="100%" fill="url(#pattern_L1_13)"/></g></svg>